<svg width="100" height="100" viewBox="0 0 100 100" fill="none" xmlns="http://www.w3.org/2000/svg">
<g clip-path="url(#clip0_101_4)">
<path d="M98.1666 98.1666C96.9583 99.3749 95.3333 99.9999 93.7499 99.9999C92.1666 99.9999 90.5416 99.3749 89.3333 98.1666L1.83325 10.6666C-0.625082 8.20825 -0.625082 4.29159 1.83325 1.83325C4.29159 -0.625082 8.20825 -0.625082 10.6666 1.83325L25.8333 16.9999C50.2499 7.54159 78.4583 13.3749 97.1249 31.9999C97.4999 32.3749 97.8749 32.7499 98.2499 33.1666C100.625 35.6666 100.542 39.6249 98.0416 41.9999C96.8333 43.1666 95.2916 43.7499 93.7083 43.7499C92.0416 43.7499 90.4166 43.0832 89.1666 41.8332L88.2499 40.9166C74.4166 27.0832 54.1666 21.9583 35.6666 26.9583L50.4582 41.7499C60.2082 41.9166 69.5416 45.7916 76.4583 52.7082C78.9166 55.1249 78.9166 59.1249 76.4583 61.5416C75.2499 62.7499 73.6666 63.3749 72.0833 63.3749L98.0833 89.3749C100.542 91.8333 100.542 95.7916 98.0833 98.2083L98.1666 98.1666ZM49.9999 70.8333C45.4166 70.8333 41.6666 74.5833 41.6666 79.1666C41.6666 83.7499 45.4166 87.4999 49.9999 87.4999C54.5833 87.4999 58.3333 83.7499 58.3333 79.1666C58.3333 74.5833 54.5833 70.8333 49.9999 70.8333ZM24.9999 51.2083C24.4999 51.6666 23.9999 52.1249 23.4999 52.6249C21.0416 55.0416 21.0416 58.9999 23.4999 61.4583C24.7083 62.6666 26.3333 63.2916 27.9166 63.2916C29.4999 63.2916 31.1249 62.6666 32.3333 61.4583C32.6666 61.1249 32.9999 60.7916 33.3332 60.4999C35.9166 58.2083 36.1249 54.2499 33.8332 51.6666C31.5416 49.0832 27.5833 48.8749 24.9999 51.1666V51.2083ZM4.04159 30.8749C3.62492 31.2499 3.24992 31.6249 2.87492 31.9999C2.49992 32.3749 2.12492 32.7916 1.74992 33.1666C-0.625082 35.6666 -0.541748 39.6249 1.95825 41.9999C3.16659 43.1666 4.70825 43.7499 6.29159 43.7499C7.95825 43.7499 9.58325 43.0832 10.8333 41.8332L12.7083 39.9582C15.2083 37.5832 15.3333 33.6249 12.9583 31.1249C10.5833 28.6249 6.62492 28.4999 4.12492 30.8749H4.04159Z" fill="#D22D39"/>
</g>
<defs>
<clipPath id="clip0_101_4">
<rect width="100" height="100" fill="white"/>
</clipPath>
</defs>
</svg>
