<svg width="100" height="100" viewBox="0 0 100 100" fill="none" xmlns="http://www.w3.org/2000/svg">
<g clip-path="url(#clip0_98_2)">
<path d="M52.9459 52.9458L43.3917 62.5L37.5001 56.6083L47.0542 47.0542C48.6834 45.425 48.6834 42.7917 47.0542 41.1625C45.4251 39.5333 42.7917 39.5333 41.1626 41.1625L31.6084 50.7167L23.7792 42.8875C22.1501 41.2583 19.5167 41.2583 17.8876 42.8875C16.2584 44.5167 16.2584 47.15 17.8876 48.7792L19.3542 50.2458L14.6292 54.975C7.25423 62.3458 6.3709 73.7875 11.9709 82.1375L1.2209 92.8875C-0.408268 94.5167 -0.408268 97.15 1.2209 98.7792C2.0334 99.5917 3.10006 100 4.16673 100C5.2334 100 6.30006 99.5917 7.11256 98.7792L17.8626 88.0292C21.4667 90.4458 25.6459 91.6583 29.8251 91.6583C35.3292 91.6583 40.8334 89.5625 45.0209 85.3708L49.7501 80.6458L51.2167 82.1125C52.0292 82.925 53.0959 83.3333 54.1626 83.3333C55.2292 83.3333 56.2959 82.925 57.1084 82.1125C58.7376 80.4833 58.7376 77.85 57.1084 76.2208L49.2792 68.3917L58.8334 58.8375C60.4626 57.2083 60.4626 54.575 58.8334 52.9458C57.2042 51.3167 54.5751 51.3167 52.9459 52.9458ZM98.7792 1.22084C97.1501 -0.408329 94.5167 -0.408329 92.8876 1.22084L82.1376 11.9708C73.7876 6.37084 62.3501 7.25417 54.9751 14.6292L50.2459 19.3583L48.7751 17.8875C47.1459 16.2583 44.5126 16.2583 42.8834 17.8875C41.2542 19.5167 41.2542 22.15 42.8834 23.7792L76.2167 57.1125C77.0292 57.925 78.0959 58.3333 79.1626 58.3333C80.2292 58.3333 81.2959 57.925 82.1084 57.1125C83.7376 55.4833 83.7376 52.85 82.1084 51.2208L80.6376 49.75L85.3667 45.0208C92.7417 37.65 93.6251 26.2083 88.0251 17.8583L98.7751 7.10834C100.404 5.47917 100.404 2.84584 98.7751 1.21667L98.7792 1.22084Z" fill="white"/>
</g>
<defs>
<clipPath id="clip0_98_2">
<rect width="100" height="100" fill="white"/>
</clipPath>
</defs>
</svg>
