<svg width="100" height="100" viewBox="0 0 100 100" fill="none" xmlns="http://www.w3.org/2000/svg">
<path d="M41.6667 79.1667C41.6667 74.5833 45.4167 70.8333 50 70.8333C54.5833 70.8333 58.3333 74.5833 58.3333 79.1667C58.3333 83.75 54.5833 87.5 50 87.5C45.4167 87.5 41.6667 83.75 41.6667 79.1667ZM76.5 61.5C78.9583 59.0417 78.9583 55.0833 76.5 52.6667C61.875 38.0417 38.0833 38.0417 23.4583 52.6667C21 55.125 21 59.0833 23.4583 61.5C25.9167 63.9167 29.875 63.9583 32.2917 61.5C42.0417 51.75 57.9167 51.75 67.6667 61.5C68.875 62.7083 70.5 63.3333 72.0833 63.3333C73.6667 63.3333 75.2917 62.7083 76.5 61.5ZM98.0417 42.0417C100.542 39.6667 100.625 35.7083 98.25 33.2083C97.875 32.8333 97.5 32.4167 97.125 32.0417C84.5417 19.4583 67.7917 12.5 50 12.5C32.2083 12.5 15.4583 19.4167 2.87501 32C2.50001 32.375 2.12501 32.7917 1.75001 33.1667C-0.624992 35.6667 -0.541658 39.625 1.95834 42C4.45834 44.375 8.41667 44.2917 10.7917 41.7917L11.7083 40.8333C21.9583 30.5833 35.5417 24.9583 50 24.9583C64.4583 24.9583 78.0833 30.5833 88.3333 40.8333L89.25 41.75C90.4583 43.0417 92.125 43.6667 93.75 43.6667C95.2917 43.6667 96.875 43.0833 98.0833 41.9583L98.0417 42.0417Z" fill="#BF9413"/>
</svg>
